<?xml version="1.0" encoding="UTF-8"?>
<svg id="Layer_1" data-name="Layer 1" xmlns="http://www.w3.org/2000/svg" viewBox="0 0 288 432">
  <defs>
    <style>
      .cls-1 {
        fill: #fff;
        stroke: #000;
        stroke-miterlimit: 10;
      }
    </style>
  </defs>
  <path class="cls-1" d="M277.11,215.59c-36.07,1.79-67.23,14.8-92.89,40.14-25.57,25.26-39.13,56.09-41.67,92.01-2.4-35.34-15.78-65.89-40.66-90.99-24.95-25.16-55.48-38.68-91-41.02,77.65-10.29,120.29-55.11,131.85-131.47,4.23,34.86,16.31,66.26,41.88,91.19,25.64,25.01,57.38,36.37,92.5,40.14Z"/>
  <g>
    <path d="M112.33,204.94l30.1-29.94h-10.65l-38.85,38.96v-31.22c-.27,.3-.54,.6-.85,.86-1.15,.96-2.45,1.66-3.77,2.33-.09,.17-.2,.33-.33,.47-1,1-2.03,1.97-3.13,2.86v53.23s.06,.04,.08,.06c.18,.13,.35,.26,.51,.4,.15,.12,.28,.27,.41,.42,.28,.15,.55,.31,.81,.48,.65,.42,1.26,.9,1.8,1.44,0,0,.02,.01,.03,.02,.87,.56,1.71,1.22,2.48,1.94,.69,.4,1.34,.84,1.96,1.32v-24.21l13.77-13.55,27.32,40.43h10.27l-31.96-46.28Z"/>
    <path d="M199.19,243.36s.03,0,.05,0c.05-.03,.09-.06,.14-.08v-55.69c-.15-.09-.26-.23-.33-.38-.15-.11-.23-.27-.29-.44-.41-.04-.67-.29-.77-.6-.13-.07-.24-.16-.34-.27-.05-.02-.09-.06-.14-.09-.23-.05-.41-.16-.53-.32-.23-.1-.39-.28-.47-.51-.53-.34-1.03-.72-1.5-1.13-.21-.18-.24-.22-.38-.31-.24-.16-.47-.33-.7-.49-.47-.34-.95-.69-1.36-1.1,0,0,0,0-.01-.01-.57-.05-.94-.38-1.12-.8-.05,0-.11,0-.16-.02v27.03h-41.47v-33.16h-8.09v76.22h8.09v-35.84h41.47v33.14c.07-.08,.13,.84,.21,.77,.75-.7,1.73-2.06,2.69-2.34,0,0,0,0,0,0,.29-.39,.74-.67,1.34-.72,.13-.15,.29-.27,.46-.37,.18-.67,.66-1.25,1.45-1.4,.29-.61,.86-1.08,1.74-1.08Z"/>
  </g>
</svg>